<svg width="25" height="24" viewBox="0 0 25 24" fill="none" xmlns="http://www.w3.org/2000/svg">
<path d="M6.6713 0C2.99274 0 0 2.99067 0 6.66667V17.3333C0 21.0093 2.99274 24 6.6713 24H17.3454C21.0239 24 24.0167 21.0093 24.0167 17.3333V6.66667C24.0167 2.99067 21.0239 0 17.3454 0H6.6713ZM6.6713 2.66667H17.3454C19.5522 2.66667 21.3481 4.46133 21.3481 6.66667V17.3333C21.3481 19.5387 19.5522 21.3333 17.3454 21.3333H6.6713C4.46443 21.3333 2.66852 19.5387 2.66852 17.3333V6.66667C2.66852 4.46133 4.46443 2.66667 6.6713 2.66667ZM18.6796 4C18.3258 4 17.9864 4.14048 17.7362 4.39052C17.4859 4.64057 17.3454 4.97971 17.3454 5.33333C17.3454 5.68696 17.4859 6.02609 17.7362 6.27614C17.9864 6.52619 18.3258 6.66667 18.6796 6.66667C19.0335 6.66667 19.3729 6.52619 19.6231 6.27614C19.8733 6.02609 20.0139 5.68696 20.0139 5.33333C20.0139 4.97971 19.8733 4.64057 19.6231 4.39052C19.3729 4.14048 19.0335 4 18.6796 4ZM12.0083 5.33333C8.32978 5.33333 5.33704 8.324 5.33704 12C5.33704 15.676 8.32978 18.6667 12.0083 18.6667C15.6869 18.6667 18.6796 15.676 18.6796 12C18.6796 8.324 15.6869 5.33333 12.0083 5.33333ZM12.0083 8C14.2152 8 16.0111 9.79467 16.0111 12C16.0111 14.2053 14.2152 16 12.0083 16C9.80147 16 8.00556 14.2053 8.00556 12C8.00556 9.79467 9.80147 8 12.0083 8Z" fill="#3D3D3C"/>
</svg>
