<svg width="33" height="23" viewBox="0 0 33 23" fill="none" xmlns="http://www.w3.org/2000/svg">
<path d="M31.4307 3.53646C31.0658 2.15104 29.9713 1.05729 28.5849 0.674479C26.0858 1.30385e-07 16.0528 0 16.0528 0C16.0528 0 6.0198 1.30385e-07 3.50243 0.674479C2.11605 1.03906 1.03978 2.13281 0.656706 3.53646C8.69838e-08 6.05208 0 11.3021 0 11.3021C0 11.3021 -4.34919e-08 16.5521 0.674947 19.0677C1.03978 20.4531 2.13429 21.5469 3.52067 21.9297C6.0198 22.6042 16.0528 22.6042 16.0528 22.6042C16.0528 22.6042 26.0858 22.6042 28.6032 21.9297C29.9896 21.5651 31.0658 20.4714 31.4489 19.0677C32.1056 16.5521 32.1056 11.3021 32.1056 11.3021C32.1056 11.3021 32.1056 6.05208 31.4307 3.53646ZM12.7693 16.0781V6.52604L21.1605 11.3021L12.7693 16.0781Z" fill="#3D3D3C"/>
</svg>
